<?xml version="1.0" encoding="UTF-8"?>
<svg id="Layer_2" data-name="Layer 2" xmlns="http://www.w3.org/2000/svg" viewBox="0 0 113.98 113.99">
  <defs>
    <style>
      .cls-1 {
        fill: #fff;
      }
    </style>
  </defs>
  <g id="Objects">
    <path class="cls-1" d="M.66,48.3v.05s-.02,.07-.02,.07c-.02,.1-.03,.2-.04,.29H.6s0,.02,0,.02h0s0,.04,0,.06c0,.06-.02,.12-.02,.18l-.02,.15v.03s-.01,.05-.01,.05h0s0,.03,0,.03v.02s0,.01,0,.01v.05s0,.04,0,.04h0s0,.03,0,.03c-.02,.19-.05,.38-.07,.57-.02,.17-.04,.34-.06,.51,0,.07-.01,.13-.02,.19H.35s0,.01,0,.01h0c-.02,.21-.05,.42-.07,.62-.02,.15-.03,.31-.04,.47v.02l-.02,.15c0,.06-.01,.12-.02,.18,0,.06-.01,.13-.02,.19,0,.03,0,.07,0,.1,0,.05,0,.1-.01,.15,0,.06,0,.12-.01,.19,0,.03,0,.06,0,.09-.02,.21-.03,.43-.05,.69h0s0,0,0,0H.1c0,.12-.01,.23-.02,.33,0,.11-.01,.23-.02,.34h0s0,.02,0,.02v.02H.07s0,.03,0,.05c0,.03,0,.05,0,.08v.03H.06s0,0,0,0v.04c0,.13-.01,.25-.02,.38,0,.05,0,.11,0,.16,0,.23-.02,.45-.02,.67,0,.03,0,.07,0,.11v.08c0,.18,0,.37,0,.55v.1s0,.05,0,.05H0v.19c0,.06,0,.11,0,.17,0,.04,0,.08,0,.12s0,.08,0,.12c0,.05,0,.11,0,.16v.33c.16,10.84,4.51,21.01,12.23,28.62,7.73,7.63,17.97,11.83,28.83,11.83,1.73,0,3.44-.11,5.13-.32,.77-.1,1.53-.2,2.29-.34,0,0,0,0,0,0-5.62-3.4-10.48-7.95-14.3-13.42-1.39-1.98-2.61-4.06-3.66-6.2-.24-.48-.46-.97-.68-1.46-.02-.05-.05-.11-.07-.16-2.66-5.99-4.05-12.48-4.05-19.16,0-9.71,2.93-19.04,8.47-26.98,1.27-1.82,2.66-3.54,4.16-5.15,4.86-5.24,10.82-9.3,17.54-11.9,2.04-.79,4.11-1.43,6.23-1.93,3.52-.83,7.14-1.24,10.81-1.24,8.58,0,16.82,2.28,24.02,6.55,0,0,0,0,0,0,0,0,0,0-.01-.01-.06-.06-.14-.13-.2-.2-.09-.09-.18-.17-.27-.26-.03-.03-.06-.05-.08-.08h0s-.02-.02-.02-.02h0s-.01-.02-.01-.02c-.08-.07-.17-.15-.25-.23-.09-.08-.17-.16-.26-.25h0s0-.02,0-.02l-.02-.02s-.03-.03-.05-.04c-.1-.09-.2-.19-.3-.28l-.02-.02-.13-.12s-.04-.04-.07-.06c-.15-.13-.29-.26-.43-.39-.17-.15-.33-.29-.48-.42-.05-.04-.1-.09-.16-.13-.11-.09-.22-.19-.33-.28l-.22-.18-.12-.1h0s-.09-.08-.09-.08l-.05-.04c-.13-.11-.26-.21-.39-.32l-.02-.02h0s-.01-.02-.01-.02h-.02c-.1-.09-.19-.17-.29-.24h0s0,0,0,0h0s0,0,0,0c-.31-.25-.63-.5-.95-.74h0s0-.01,0-.01c-.09-.07-.17-.13-.26-.2l-.11-.08-.06-.05s-.03-.02-.04-.03c0,0,0,0-.01-.01h0s-.01-.01-.01-.01h0s-.02-.02-.02-.02l-.18-.13-.07-.05-.25-.18s-.05-.04-.08-.06c-.05-.03-.09-.07-.14-.1l-.1-.07h0s0,0,0,0h0s0,0,0,0c-.1-.07-.19-.14-.29-.21-.02-.02-.05-.03-.07-.05l-.03-.02-.02-.02c-.24-.17-.47-.33-.71-.5h0s0,0,0,0h0c-.11-.08-.21-.15-.32-.23-.03-.02-.05-.04-.08-.05h0s0,0,0,0c-.16-.1-.32-.21-.48-.32,0,0-.02-.01-.03-.02h0s-.01,0-.01,0h-.02s-.07-.05-.1-.08c-.12-.08-.23-.15-.35-.22h-.02s0-.01,0-.01h-.02c-.17-.13-.35-.23-.52-.34h-.02s0-.01,0-.01l-.02-.02c-.18-.11-.36-.23-.54-.33l-.29-.17h0s-.09-.06-.13-.08c-.05-.03-.11-.07-.17-.1h-.01s0,0,0,0h0s0,0,0,0c-.03-.02-.07-.04-.1-.06-.13-.08-.26-.15-.39-.23l-.1-.06s-.09-.05-.13-.08c-.12-.07-.24-.14-.36-.21-.01,0-.02-.01-.04-.02-.81-.45-1.63-.89-2.46-1.3-.02,0-.04-.02-.06-.03h0s0,0,0,0h-.02c-.18-.1-.36-.19-.55-.28l-.49-.23h0s-.03-.02-.04-.02c0,0-.02,0-.03-.01h-.01s0,0,0,0h0c-.58-.28-1.11-.51-1.62-.73h-.01s-.01-.01-.01-.01h-.01s-.01,0-.01,0c-.12-.06-.25-.11-.37-.16l-.05-.02-.04-.02h0s0,0,0,0l-.22-.09c-.08-.03-.16-.06-.24-.1-.04-.02-.07-.03-.11-.04-.55-.22-1-.4-1.41-.55l-.25-.09h-.03s-.26-.11-.26-.11c-.7-.25-1.42-.5-2.15-.73h0s0,0,0,0c-.01,0-.02,0-.04-.01-.14-.04-.28-.09-.41-.13-.14-.04-.28-.09-.43-.13-.08-.03-.17-.05-.25-.08-.32-.09-.62-.18-.9-.26h-.01s0,0,0,0h0s-.01,0-.01,0c-.04-.01-.08-.02-.12-.03-.06-.02-.13-.03-.19-.05h-.04s-.06-.03-.06-.03c-.6-.16-1.21-.3-1.82-.45-.36-.08-.72-.16-1.08-.24-.61-.13-1.22-.26-1.84-.37-.23-.04-.46-.08-.69-.12h-.01s0,0,0,0h0c-.23-.04-.46-.08-.69-.11-.11-.02-.21-.03-.32-.05-.13-.02-.27-.04-.4-.06-.66-.09-1.32-.17-1.98-.24-1.28-.13-2.56-.22-3.85-.27-.72-.03-1.43-.04-2.15-.04-1.21,0-2.41,.04-3.62,.12-.13,0-.25,.01-.38,.02-1.33,.09-2.66,.23-3.97,.41-.24,.03-.47,.07-.71,.1,0,0-.01,0-.02,0,0,0,0,0,0,0h0L.66,48.28v.02Z"/>
    <path class="cls-1" d="M113.34,65.62v-.04s.01-.05,.01-.05c.01-.08,.02-.16,.03-.24v-.02s0-.03,0-.03v-.03c.02-.1,.04-.21,.05-.32v-.07s.02-.07,.02-.07c0-.03,0-.07,.02-.1l.04-.36,.03-.24c.03-.24,.06-.46,.08-.68v-.03c.03-.21,.05-.41,.07-.61,.02-.17,.03-.33,.05-.48h0s.02-.16,.02-.16c.01-.11,.02-.22,.03-.33v-.04s0-.04,0-.04c.02-.14,.02-.29,.03-.43v-.06c.02-.21,.04-.43,.05-.68v-.02c.02-.22,.03-.44,.04-.66v-.06s0-.09,0-.09v-.09c.02-.18,.02-.36,.03-.55,0-.25,.02-.48,.02-.72v-.03s0-.11,0-.11c0-.17,0-.34,0-.51v-.22c0-.15,0-.29,0-.44,0-.15,0-.31,0-.46h0s0-.16,0-.16c-.16-10.84-4.5-21-12.22-28.62-7.73-7.63-17.97-11.83-28.84-11.83-2.51,0-4.99,.22-7.42,.67,5.62,3.4,10.49,7.95,14.3,13.42,5.54,7.94,8.47,17.27,8.47,26.98s-2.93,19.04-8.47,26.98c-5.41,7.75-12.91,13.65-21.7,17.05-5.42,2.1-11.15,3.17-17.03,3.17-8.58,0-16.82-2.28-24.02-6.54h.01s.03,.04,.03,.04l.03,.03s.07,.07,.1,.1l.11,.11c.09,.09,.18,.18,.28,.27l.02,.02,.02,.02c.15,.15,.33,.32,.51,.48l.03,.02,.02,.02c.12,.11,.23,.22,.35,.33h0s.01,.02,.01,.02c.21,.19,.41,.38,.63,.56h.01s.01,.02,.01,.02c.14,.12,.28,.25,.42,.37l.03,.02,.09,.08h0s.41,.35,.41,.35l.08,.07,.02,.02c.11,.09,.22,.18,.33,.27l.04,.03,.04,.04c.1,.08,.2,.17,.32,.26l.04,.03,.04,.03c.09,.07,.17,.14,.25,.21l.03,.02,.02,.02c.3,.25,.62,.49,.94,.73,.07,.06,.14,.11,.21,.16,.08,.06,.16,.12,.24,.18,.05,.03,.09,.06,.13,.1l.08,.06c.13,.1,.25,.19,.38,.29l.12,.09c.06,.05,.13,.09,.19,.14l.02,.02,.03,.02c.09,.07,.19,.14,.29,.21l.1,.07c.23,.17,.47,.33,.71,.5h.02s.02,.03,.02,.03c.1,.07,.21,.14,.32,.21l.08,.05,.26,.17,.28,.19c.14,.09,.29,.19,.44,.28,.15,.1,.3,.19,.44,.28h.36l.65,.62c.1,.06,.2,.12,.3,.18,.2,.12,.4,.23,.6,.34h.02s.02,.02,.02,.02c.16,.09,.31,.18,.47,.27,.84,.48,1.69,.93,2.55,1.35,.19,.09,.38,.19,.56,.28,.03,.02,.06,.03,.08,.04,.18,.08,.35,.17,.53,.25,.54,.25,1.09,.5,1.62,.73h.01s.01,0,.01,0c.13,.06,.27,.12,.4,.17,.04,.02,.08,.03,.13,.06,.18,.07,.36,.15,.54,.22,.44,.18,.91,.36,1.41,.55h.02s.02,.01,.02,.01c.15,.06,.31,.12,.46,.17h.02s.02,.01,.02,.01c.73,.27,1.45,.51,2.14,.73h.02s.02,.02,.02,.02c.14,.05,.28,.09,.42,.14h.02s.02,0,.02,0c.21,.07,.42,.13,.63,.2l.18,.05c.25,.07,.51,.14,.76,.21,.14,.04,.27,.07,.39,.11h.03c1.57,.43,3.17,.79,4.74,1.06h.02s.02,0,.02,0c.19,.03,.4,.07,.65,.11h.03c.25,.05,.47,.08,.66,.11h.03s.03,0,.03,0c.22,.04,.44,.07,.67,.1h.02c2.63,.37,5.31,.56,7.97,.56s5.35-.19,7.98-.55h.06c.21-.04,.42-.07,.63-.1h.03s.02,0,.02,0l47.62-47.62s0-.06,.01-.08Z"/>
  </g>
</svg>