<?xml version="1.0" encoding="UTF-8"?>
<svg id="Layer_2" data-name="Layer 2" xmlns="http://www.w3.org/2000/svg" viewBox="0 0 1689.05 937.7">
  <defs>
    <style>
      .cls-1 {
        fill: #364154;
      }

      .cls-2 {
        fill: #599dad;
      }

      .cls-3 {
        fill: #d5d6da;
      }

      .cls-4 {
        fill: #b05638;
      }

      .cls-5 {
        fill: #016eb9;
      }

      .cls-6 {
        fill: #a0462d;
      }

      .cls-7 {
        fill: #eaeaea;
      }

      .cls-8 {
        fill: #131f2d;
      }

      .cls-9 {
        fill: #ef6343;
      }

      .cls-10 {
        fill: #00a3fe;
      }

      .cls-11 {
        fill: #ff7955;
      }
    </style>
  </defs>
  <g id="Layer_1-2" data-name="Layer 1">
    <g>
      <g>
        <g>
          <path class="cls-3" d="M1250.48,200.14s-53.73-43.7-18.07-84.11c0,0,27.06-23.91,52.12-26.91,0,0-24.45,65.26-12.02,69.06,12.42,3.8,22-74.68,22-74.68,0,0,67.96-19.25,92.15-12.58,0,0-50.36,59.11-37.39,59.73,12.98,.62,68.24-58.45,68.24-58.45,0,0,66.37-.71,70.05,39.18,3.69,39.9-16.3,56.04-26.24,56.77-9.94,.72-70.92-10.71-70.71-2.5,.21,8.21,39.27,28.1,63.53,24.96,0,0-36.32,58.28-69.1,49.31-32.78-8.98-39.51-31.41-59.87-36.59-20.36-5.18-36.41-2.25-27.06,5.1,9.35,7.35,44.93,9.7,59.13,26.77,14.2,17.07,26.17,28.15-5.89,29.11-32.06,.96-86.93-12.68-93.9-38.43l-6.97-25.75Z"/>
          <g>
            <path class="cls-3" d="M1456.11,118.18s-176.08,24.96-205.63,81.96c0,0-3.91,27.13-25.96,55.18l-2.07,11.91s24.51-37.44,35-41.34c0,0-28.19-58.88,198.67-107.71Z"/>
            <path class="cls-2" d="M1224.52,255.32s-32.5,34.56-26.12,84.63l6.92-.62s2.69-53.45,20.72-77.44c18.03-23.98-1.53-6.57-1.53-6.57Z"/>
          </g>
        </g>
        <g>
          <path class="cls-7" d="M1236.75,515.67s-105.28-81.31-38.77-160.63c0,0,50.8-47.23,98.77-54.2,0,0-43.78,126.49-19.74,133.18,24.04,6.69,38.62-144.46,38.62-144.46,0,0,129.55-40.25,176.33-28.62,0,0-93.84,115.94-68.89,116.51,24.95,.57,128.2-115.54,128.2-115.54,0,0,127.4-4.58,136.41,71.84,9.01,76.43-28.58,108.4-47.63,110.27-19.05,1.87-136.7-17.13-135.9-1.37,.79,15.76,76.76,52.05,123.2,44.86,0,0-66.91,113.67-130.3,98.02-63.39-15.65-77.39-58.4-116.74-67.36s-70.02-2.56-51.71,11.11c18.31,13.67,86.74,16.44,114.83,48.54,28.1,32.09,51.62,52.79-9.89,56.19-61.52,3.4-167.54-20.14-182.16-69.24l-14.62-49.1Z"/>
          <g>
            <path class="cls-3" d="M1627.63,348.33s-336.9,56.45-390.88,167.34c0,0-6.18,52.27-47.18,107.21l-3.4,22.96s45.25-73.08,65.21-81.07c0,0-56.97-111.7,376.26-216.45Z"/>
            <path class="cls-3" d="M1189.57,622.88s-60.73,67.94-46.05,163.77l13.26-1.54s2.58-102.77,36.04-149.69c33.46-46.92-3.25-12.54-3.25-12.54Z"/>
          </g>
        </g>
        <g>
          <path class="cls-3" d="M649.19,537.81s-1.11-99.46-78.41-95.49c0,0-51.07,9.05-76.84,34.54,0,0,95.21,30.85,88.38,48.21-6.83,17.36-103.62-42.02-103.62-42.02,0,0-82.38,59.2-96.51,92.35,0,0,111.47-3.79,100.57,11.36-10.9,15.15-126.71,24.47-126.71,24.47,0,0-60.12,73.97-18.56,113.78,41.56,39.8,77.58,31.77,87.27,21.24,9.7-10.53,51.35-89.3,60.4-81.73,9.05,7.57-3.51,69.26-28.72,93.74,0,0,97.98,11.27,117.19-33.61,19.21-44.88,0-72.5,12.38-100.02,12.38-27.52,30.01-42.94,29.92-25.86-.09,17.08-29.25,59.18-22.75,90.4,6.5,31.23,8.25,54.59,37.99,19.4,29.74-35.19,63.45-109.07,40.73-139.91l-22.72-30.84Z"/>
          <g>
            <path class="cls-3" d="M373.24,695.72s185.44-175.65,275.95-157.92c0,0,33.99,19.86,85.24,20.13l15.24,8.31s-64-5.91-77.76,2.4c0,0-41-84.32-298.66,127.07Z"/>
            <path class="cls-2" d="M734.43,557.94s67.9-5.65,118.49,46.28l-6.89,7.22s-62.5-44.75-105.58-45.92c-43.08-1.16-6.02-7.59-6.02-7.59Z"/>
          </g>
        </g>
        <g>
          <path class="cls-7" d="M605.15,214.04s58.97-30.76,33.22-75.65c0,0-20.85-27.71-43.85-35.37,0,0,10.42,66.11-2,67.29-12.42,1.18-6.3-74.5-6.3-74.5,0,0-60.23-31.21-84.27-29.6,0,0,35.99,65.32,23.66,63.41-12.33-1.92-52.93-68.15-52.93-68.15,0,0-62.3-13.47-73.46,23.36-11.16,36.82,4.53,55.87,13.74,58.47,9.21,2.6,68.79,3.6,67.01,11.29-1.78,7.69-42.36,18.87-64.59,11.24,0,0,22.93,61.84,55.51,59.71,32.58-2.13,43.23-21.94,63.38-22.88,20.16-.95,34.69,4.9,24.47,10.02-10.22,5.11-44.14,.46-60.79,13.79-16.65,13.32-30.05,21.44-.08,28.53,29.98,7.09,84.23,4.83,95.75-18.05l11.52-22.88Z"/>
          <g>
            <path class="cls-3" d="M427.48,97.28s160.85,57.43,177.66,116.76c0,0-1.56,26.27,13.79,56.92l-.35,11.6s-15.84-39.95-24.96-45.64c0,0,37.87-49.96-166.14-139.64Z"/>
            <path class="cls-3" d="M618.93,270.96s23.92,38.78,8.26,84.66l-6.39-1.92s7.77-50.81-4.57-76.85c-12.34-26.04,2.7-5.88,2.7-5.88Z"/>
          </g>
        </g>
        <g>
          <rect class="cls-5" x="589.94" y="10.8" width="666.31" height="918.94"/>
          <rect class="cls-10" x="572.78" y="10.8" width="666.31" height="918.94"/>
          <rect class="cls-7" x="618.48" y="73.83" width="574.91" height="792.89"/>
          <path class="cls-5" d="M791.77,0h228.34c6.84,0,12.39,5.55,12.39,12.39V88.56c0,6.84-5.55,12.39-12.39,12.39h-228.34c-6.84,0-12.39-5.55-12.39-12.39V12.39c0-6.84,5.55-12.39,12.39-12.39Z"/>
        </g>
        <g>
          <path class="cls-10" d="M1134.44,314.9h-457.02c-4.87,0-8.82-3.95-8.82-8.82h0c0-4.87,3.95-8.82,8.82-8.82h457.02c4.87,0,8.82,3.95,8.82,8.82h0c0,4.87-3.95,8.82-8.82,8.82Z"/>
          <path class="cls-10" d="M1134.44,350.44h-457.02c-4.87,0-8.82-3.95-8.82-8.82h0c0-4.87,3.95-8.82,8.82-8.82h457.02c4.87,0,8.82,3.95,8.82,8.82h0c0,4.87-3.95,8.82-8.82,8.82Z"/>
          <rect class="cls-10" x="668.6" y="367.94" width="417.33" height="17.64" rx="8.82" ry="8.82"/>
          <g>
            <path class="cls-5" d="M702.82,458.12c-12.25,0-22.21-9.97-22.21-22.21s9.97-22.21,22.21-22.21,22.21,9.97,22.21,22.21-9.97,22.21-22.21,22.21Zm0-39.49c-9.53,0-17.28,7.75-17.28,17.28s7.75,17.28,17.28,17.28,17.28-7.75,17.28-17.28-7.75-17.28-17.28-17.28Z"/>
            <path class="cls-5" d="M838.23,458.12c-12.25,0-22.21-9.97-22.21-22.21s9.97-22.21,22.21-22.21,22.21,9.97,22.21,22.21-9.97,22.21-22.21,22.21Zm0-39.49c-9.53,0-17.28,7.75-17.28,17.28s7.75,17.28,17.28,17.28,17.28-7.75,17.28-17.28-7.75-17.28-17.28-17.28Z"/>
            <path class="cls-5" d="M973.64,458.12c-12.25,0-22.21-9.97-22.21-22.21s9.97-22.21,22.21-22.21,22.21,9.97,22.21,22.21-9.97,22.21-22.21,22.21Zm0-39.49c-9.53,0-17.28,7.75-17.28,17.28s7.75,17.28,17.28,17.28,17.28-7.75,17.28-17.28-7.75-17.28-17.28-17.28Z"/>
            <path class="cls-5" d="M1109.05,458.12c-12.25,0-22.21-9.97-22.21-22.21s9.97-22.21,22.21-22.21,22.21,9.97,22.21,22.21-9.97,22.21-22.21,22.21Zm0-39.49c-9.53,0-17.28,7.75-17.28,17.28s7.75,17.28,17.28,17.28,17.28-7.75,17.28-17.28-7.75-17.28-17.28-17.28Z"/>
          </g>
        </g>
        <g>
          <path class="cls-10" d="M1134.44,626.48h-457.02c-4.87,0-8.82-3.95-8.82-8.82h0c0-4.87,3.95-8.82,8.82-8.82h457.02c4.87,0,8.82,3.95,8.82,8.82h0c0,4.87-3.95,8.82-8.82,8.82Z"/>
          <rect class="cls-10" x="668.6" y="644.38" width="474.66" height="17.64" rx="8.82" ry="8.82"/>
          <rect class="cls-10" x="668.6" y="679.52" width="269.95" height="17.64" rx="8.82" ry="8.82"/>
          <path class="cls-10" d="M1134.44,555.94h-457.02c-4.87,0-8.82-3.95-8.82-8.82h0c0-4.87,3.95-8.82,8.82-8.82h457.02c4.87,0,8.82,3.95,8.82,8.82h0c0,4.87-3.95,8.82-8.82,8.82Z"/>
          <path class="cls-10" d="M1134.44,591.48h-457.02c-4.87,0-8.82-3.95-8.82-8.82h0c0-4.87,3.95-8.82,8.82-8.82h457.02c4.87,0,8.82,3.95,8.82,8.82h0c0,4.87-3.95,8.82-8.82,8.82Z"/>
          <g>
            <path class="cls-5" d="M702.82,769.7c-12.25,0-22.21-9.97-22.21-22.21s9.97-22.21,22.21-22.21,22.21,9.97,22.21,22.21-9.97,22.21-22.21,22.21Zm0-39.49c-9.53,0-17.28,7.75-17.28,17.28s7.75,17.28,17.28,17.28,17.28-7.75,17.28-17.28-7.75-17.28-17.28-17.28Z"/>
            <path class="cls-5" d="M838.23,769.7c-12.25,0-22.21-9.97-22.21-22.21s9.97-22.21,22.21-22.21,22.21,9.97,22.21,22.21-9.97,22.21-22.21,22.21Zm0-39.49c-9.53,0-17.28,7.75-17.28,17.28s7.75,17.28,17.28,17.28,17.28-7.75,17.28-17.28-7.75-17.28-17.28-17.28Z"/>
            <path class="cls-5" d="M973.64,769.7c-12.25,0-22.21-9.97-22.21-22.21s9.97-22.21,22.21-22.21,22.21,9.97,22.21,22.21-9.97,22.21-22.21,22.21Zm0-39.49c-9.53,0-17.28,7.75-17.28,17.28s7.75,17.28,17.28,17.28,17.28-7.75,17.28-17.28-7.75-17.28-17.28-17.28Z"/>
            <path class="cls-5" d="M1109.05,769.7c-12.25,0-22.21-9.97-22.21-22.21s9.97-22.21,22.21-22.21,22.21,9.97,22.21,22.21-9.97,22.21-22.21,22.21Zm0-39.49c-9.53,0-17.28,7.75-17.28,17.28s7.75,17.28,17.28,17.28,17.28-7.75,17.28-17.28-7.75-17.28-17.28-17.28Z"/>
          </g>
        </g>
        <g>
          <path class="cls-11" d="M412.48,335.88s19.85-10.81,22.8-14.8c2.95-3.98,11.32-19.2,12-24.48s-15.44,9.51-19.49,10.19c-4.06,.68,5.28-6.32,4.74-8.29-.54-1.98-9.73,2.44-13.17,3.8-3.45,1.36-8.79,15.02-14.71,21.3-5.92,6.28,7.84,12.28,7.84,12.28Z"/>
          <path class="cls-8" d="M196.81,273.99s3.84,93.59,100.65,139.59c30.22,14.36,118.5-77.79,118.5-77.79,0,0-3.17-10.41-14.42-11.97,0,0-79.82,36.07-89.46,39.7-8.56,3.21-50.08-67.13-71.96-80.92-21.88-13.8-43.31-8.6-43.31-8.6Z"/>
          <g>
            <path class="cls-8" d="M64.09,870.52s-12.77,11.65-10.27,19.93c2.49,8.28,14.01,13.8,15.57,23.91,1.56,10.12,7.78,15.64,13.39,15.64h26.72s4.13-7.12-5.84-9.26c-9.96-2.15-13.72-14.04-13.1-25.07,.62-11.04-.93-25.75-.93-25.75l-21.17-4.91-4.36,5.52Z"/>
            <path class="cls-8" d="M220.2,900.9s-2.29,26.51,3.31,29.27l71.28,.07s.44-8.5-11.08-10.34c-11.52-1.84-31.76-8.58-35.18-23.61-3.42-15.02-28.33,4.6-28.33,4.6Z"/>
            <path class="cls-10" d="M281.26,525.88s-3.78,46.47-8.23,102.34c-6.04,75.89-13.31,169.1-14.03,186.76-1.24,30.66-6.23,79.71-6.23,79.71,0,0-11.83,11.65-35.5,6.74,0,0-21.09-70.02-27.12-144.11-.09-1.21-.19-2.44-.28-3.66-5.6-75.42-14.32-234.23-14.32-234.23l105.7,6.44Z"/>
            <path class="cls-5" d="M281.26,525.88s-3.78,46.47-8.23,102.34l-82.87,129.11c-.09-1.21-.19-2.44-.28-3.66-5.6-75.42-14.32-234.23-14.32-234.23l105.7,6.44Z"/>
            <path class="cls-10" d="M263.98,531.4s-68.19,168.31-113.02,247.41c-44.84,79.1-58.85,101.17-58.85,101.17,0,0-25.69-10.12-28.02-17.02,0,0,17.14-152.7,47.17-189.93,16.97-21.03,36.9-84.16,37.83-106.23,.93-22.07,6.07-65.76,6.07-65.76l108.82,30.35Z"/>
          </g>
          <path class="cls-11" d="M174.27,272.02s46.14,22.26,72.73,14c0,0-6.55-8.26-18-14.41,.92-5.34,1.64-9.97,2.05-13.9,1.13-9.07,1.13-14.2,1.13-14.2l-17.8-14-16.88-13.4c1.33,37.67-23.22,55.9-23.22,55.9Z"/>
          <path class="cls-1" d="M284.17,529.72c-.81,.71-1.74,1.1-2.77,1.1-10.02-.2-39.18,5.33-63.82,2.82-20.87-2.01-39.28-8.06-59.03-16.71-2.66-1.21-8.7-4.43-8.59-7.25,.11-3.23,.41-7.76,.81-13.61,.83-11.51,1.99-27.85,2.36-47.22,.28-14.36,.12-30.39-.92-47.36-.06-1.14-.12-2.29-.17-3.44-.3-6.22-.44-12.49-.44-18.62-.11-19.74,1.32-38.58,4.18-55.4,5.02-29.22,14.43-52.08,28.34-62.25,1.85-1.41,13.31,4.12,23.94,9.27,9.72,4.74,19.43,5.24,28.64,3.43l9.21,8.06c11.16,10.17,23.44,24.17,28.85,45.33,4.5,17.93,7.16,50.36,8.6,84.01,.71,15.31,1.22,30.62,1.43,45.22v.5c.11,1.51,.11,3.03,.11,4.54,.5,37.37,0,67.08-.72,67.59Z"/>
          <path class="cls-9" d="M197.18,230.52s11.66,21.25,33.86,27.2c1.13-9.07,1.13-14.2,1.13-14.2l-17.8-14-17.19,1.01Z"/>
          <path class="cls-11" d="M240.28,242.9s-44.01,7.2-48.14-19.86c-4.13-27.06-12.59-44.35,15.33-50.09,27.93-5.74,34.98,3.77,38.59,12.47,3.61,8.7,5.57,54.9-5.77,57.47Z"/>
          <path class="cls-8" d="M176.14,169.71c-.4-.46-1.32-.83-3.37-.94,0,0,1.64-1.03,3.83-1.08,.43-2.85,1.95-7.9,6.85-9.13,0,0-2.64,1.41-2.98,4.44,5.68-5.84,17.87-10.09,51.6-7.42,44.45,3.51,29.8,31.97,24.05,35.36-5.76,3.39-20.24-5.91-30.96-5.06-10.72,.85-12.76,16.34-16.4,18.47-3.64,2.13-2.21-1.63-7.13-3.86-4.92-2.22-5.39,5.93-3.97,11.23,1.42,5.3-5.34,12.3-5.34,12.3l-6.83-7.36c-6.83-7.36-13.28-38.53-10.17-45.18,.28-.59,.55-1.18,.83-1.78Z"/>
          <path class="cls-8" d="M153.13,448.85c.28-14.36,.12-30.39-.92-47.36-.06-1.14-.12-2.29-.17-3.44,4.18-20.73,10.51-39.12,19.83-39.72,0,0,27.75,43.61-18.74,90.52Z"/>
          <path class="cls-11" d="M116.42,524.06s2.31,22.49,4.85,26.74c2.54,4.25,13.34,17.85,17.95,20.52,4.6,2.67-2.81-17.91-1.87-21.92,.94-4,3.79,7.31,5.82,7.57,2.03,.27,1.51-9.91,1.58-13.62,.07-3.71-9.87-12.85-13.38-20.74-3.51-7.89-14.95,1.45-14.95,1.45Z"/>
          <path class="cls-1" d="M184.14,261.55s-27.85,13.19-41.2,33.46c-20.71,31.45-44.72,146.05-45.16,156.66-.44,10.61,17.52,85.54,17.52,85.54,0,0,18.22-1.2,22.92-10.4,0,0-3.64-76.98-1.33-81.93,2.31-4.95,75.96-103.26,67.68-124.24-8.28-20.98-20.43-59.09-20.43-59.09Z"/>
        </g>
        <g>
          <path class="cls-8" d="M888.7,512.55h0c-2.39,.52-4.78-1.01-5.3-3.4l-11.32-51.79c-.52-2.39,1.01-4.78,3.4-5.3h0c2.39-.52,4.78,1.01,5.3,3.4l11.32,51.79c.52,2.39-1.01,4.78-3.4,5.3Z"/>
          <g>
            <path class="cls-11" d="M1043.64,576.37s36.31,71.48,40.17,82.53c3.87,11.05,11.81,41.36,11.81,41.36l-10.82,1.46s-15.08-32.01-16.19-35.62c-1.11-3.6-22.9-25.76-26.65-36.61-3.75-10.85,1.67-53.12,1.67-53.12Z"/>
            <path class="cls-8" d="M1064.87,910.15s-2.99,5.84-9.62,7.28c-4.17,.91-7.75,3.08-9.97,6.13-1.88,2.57-.06,6.19,3.13,6.19h33.64c2.86,0,5.1-2.47,4.81-5.32-.25-2.49-.51-5.39-.63-7.62-.25-4.86-5.11-8.77-5.11-8.77l-16.25,2.11Z"/>
            <path class="cls-4" d="M1084.41,909.58c-14.79,8.26-23.91,3.59-23.91,3.59-.64-7.68-10.45-47.18-21.04-88.32-12.96-50.32-27.11-103.11-27.11-103.11,0,0,30.07-26.7,51.92-12.14,10.1,6.73,13.34,24.13,14.74,43.01,1.64,21.98,.8,45.98,5.41,57.47,8.59,21.35,0,99.5,0,99.5Z"/>
            <path class="cls-6" d="M1079,752.6l-39.54,72.24c-12.96-50.32-27.11-103.11-27.11-103.11,0,0,30.07-26.7,51.92-12.14,10.1,6.73,13.34,24.13,14.74,43.01Z"/>
            <path class="cls-11" d="M990.97,584.93l25.08,11.55,5.63-19.5s-3.58-6.75-5.2-17.8c-.68-4.65-1.01-10.06-.58-16.05l-22.9,11.72s.55,2.12,.91,5.24c.39,3.38,.56,7.93-.4,12.25-.83,3.71-1.75,7.7-2.55,12.57Z"/>
            <path class="cls-9" d="M993.52,572.35c13.02-.35,22.96-13.17,22.96-13.17l-22.57,.92c.39,3.38,.56,7.93-.4,12.25Z"/>
            <path class="cls-11" d="M987.2,565.1s25.97,6.86,34.93-13.79c9.67-22.29-.94-38.52-9.76-39.62-17.59-2.18-27.8,4.52-30.89,11.61-3.09,7.09-8.61,38.15,5.72,41.8Z"/>
            <path class="cls-8" d="M983.4,520.11c-6.89,.55-15.16-6.49-7.33-17.29,7.14-9.85,35.22-15.81,49.9-4.42,34.15,26.51,9.46,54.06-6.04,61.95-1.97,1-4.37,.4-5.66-1.39-2.63-3.65-6.53-9.7-5.48-12.18,1.55-3.65,1.75-12.6-3.15-10.68-4.89,1.92-15.41-16.53-22.24-15.99Z"/>
            <path class="cls-8" d="M985.31,910.73s-3.1,5.26-9.73,6.7c-4.17,.91-7.75,3.08-9.97,6.13-1.88,2.57-.06,6.19,3.13,6.19h33.64c2.86,0,5.1-2.47,4.81-5.32-.25-2.49-.51-5.39-.63-7.62-.25-4.86-5.11-8.77-5.11-8.77l-16.14,2.69Z"/>
            <path class="cls-4" d="M984.39,911.61s8.44,4.68,22.09,1.81c0,0,22.85-59.28,24.22-87.21,.06-1.12,.08-2.19,.06-3.21-.47-26.27,23.79-94.69,17.25-108.71-6.54-14.02-59.41,6.3-59.41,6.3l-1.05,47.67-3.16,143.35Z"/>
            <path class="cls-1" d="M1000.95,730.51c-7.53-.27-13.17-1.07-15.22-2.54-8.36-5.98-8.37-64.96-12.67-98.35-.46-3.63-.99-6.95-1.57-9.87-5.98-29.84,2.41-43.38,15.67-42.71,0,0,35.34-8.79,49.56,1,12.43,8.56,27.25,79.99,39.34,141.65,1.22,6.2-48.63,11.79-75.12,10.82Z"/>
            <g>
              <path class="cls-11" d="M989.94,594.15s-56.82-25.87-61.23-30.48c-4.41-4.61-32.17-49.44-32.17-49.44l-10.2,4.59s20.18,57.83,28.18,67.83c8,10,75.45,42.15,75.45,42.15l-.03-34.65Z"/>
              <path class="cls-11" d="M896.54,514.23s-1.64-4.53-1.35-8.86c.28-4.33-3.71-14.1-5.43-12.94-1.72,1.15,.25,4.5-2.01,4.73-2.25,.23-8.39-11.44-10.81-9.52-2.43,1.92-3.67,8.5-.19,16.72,3.48,8.22,9.59,14.46,9.59,14.46,1.46,3.24,11.66-1.35,10.2-4.59Z"/>
            </g>
            <path class="cls-11" d="M1084.7,699.45s.48,4.18-.63,7.8c-1.11,3.62,.32,12.73,2.02,12.09,1.7-.64,.69-3.87,2.66-3.62,1.96,.25,5.8,10.69,8.25,9.54,2.45-1.14,4.03-4.85,2.72-12.54-1.31-7.69-5.42-15.13-5.42-15.13l-9.59,1.86Z"/>
            <path class="cls-1" d="M992.34,577.73s-13.92-1.91-19.51-2.46c-5.14-.51-19.9,1.49-19.9,1.49,0,0-.14,34.75,19.34,50.8l24.11,4.14-4.04-53.96Z"/>
            <path class="cls-1" d="M1020.17,573.52s20.41,.52,24.28,1.66c9.03,2.66,16.44,22.11,16.44,22.11,0,0-5.53,16.85-15.47,17.4-9.95,.55-25.24-41.18-25.24-41.18Z"/>
            <path class="cls-8" d="M1000.95,730.51c-7.53-.27-13.17-1.07-15.22-2.54-8.36-5.98-8.37-64.96-12.67-98.35,5.01,12.92,31.57,82.77,27.89,100.89Z"/>
          </g>
        </g>
        <g>
          <path class="cls-8" d="M781.86,155.16h-34.62v-11.38h84.27v11.38h-34.79v92.3h-14.86v-92.3Z"/>
          <path class="cls-8" d="M903.12,198.85h-44.25v37.38h49.31v11.23h-64.01v-103.68h61.47v11.23h-46.78v32.77h44.25v11.08Z"/>
          <path class="cls-8" d="M925.24,231.15c6.59,3.69,16.21,6.77,26.35,6.77,15.03,0,23.81-7.23,23.81-17.69,0-9.69-6.08-15.23-21.45-20.61-18.58-6-30.06-14.77-30.06-29.38,0-16.15,14.69-28.15,36.82-28.15,11.65,0,20.1,2.46,25.16,5.08l-4.05,10.92c-3.71-1.85-11.31-4.92-21.62-4.92-15.54,0-21.45,8.46-21.45,15.54,0,9.69,6.92,14.46,22.63,20,19.25,6.77,29.05,15.23,29.05,30.46,0,16-13,29.84-39.86,29.84-10.98,0-22.97-2.92-29.05-6.61l3.72-11.23Z"/>
          <path class="cls-8" d="M1032.14,155.16h-34.62v-11.38h84.27v11.38h-34.79v92.3h-14.86v-92.3Z"/>
        </g>
        <path class="cls-8" d="M839.67,454.56l-4.54-7.95c-.33-.57-8.09-14.18-14.04-27.41-1.12-2.49-.01-5.41,2.48-6.53,2.49-1.12,5.41,0,6.53,2.48,3,6.67,6.56,13.58,9.28,18.68,5.45-9.75,15.5-26.64,27.46-41.47,1.71-2.12,4.82-2.46,6.94-.74,2.12,1.71,2.45,4.82,.74,6.94-17.07,21.17-30.57,47.58-30.71,47.85l-4.15,8.16Z"/>
      </g>
      <path class="cls-1" d="M1574.38,937.7H4.24c-2.33,0-4.24-1.79-4.24-3.97H0c0-2.19,1.91-3.97,4.24-3.97H1574.38c2.33,0,4.24,1.79,4.24,3.97h0c0,2.19-1.91,3.97-4.24,3.97Z"/>
    </g>
  </g>
</svg>